<?xml version="1.0" encoding="UTF-8" standalone="no"?>
<!-- Created with Inkscape (http://www.inkscape.org/) -->

<svg
   width="158.22606mm"
   height="154.57422mm"
   viewBox="0 0 158.22606 154.57422"
   version="1.1"
   id="svg1"
   inkscape:version="1.4.2 (f4327f4, 2025-05-13)"
   sodipodi:docname="Shirt_Front_final_weiss.svg"
   xmlns:inkscape="http://www.inkscape.org/namespaces/inkscape"
   xmlns:sodipodi="http://sodipodi.sourceforge.net/DTD/sodipodi-0.dtd"
   xmlns="http://www.w3.org/2000/svg"
   xmlns:svg="http://www.w3.org/2000/svg">
  <sodipodi:namedview
     id="namedview1"
     pagecolor="#000000"
     bordercolor="#000000"
     borderopacity="0.25"
     inkscape:showpageshadow="2"
     inkscape:pageopacity="0.0"
     inkscape:pagecheckerboard="0"
     inkscape:deskcolor="#d1d1d1"
     inkscape:document-units="mm"
     inkscape:zoom="1.0093364"
     inkscape:cx="285.33598"
     inkscape:cy="332.39661"
     inkscape:window-width="1440"
     inkscape:window-height="2471"
     inkscape:window-x="2551"
     inkscape:window-y="-9"
     inkscape:window-maximized="1"
     inkscape:current-layer="layer1" />
  <defs
     id="defs1" />
  <g
     inkscape:label="Ebene 1"
     inkscape:groupmode="layer"
     id="layer1"
     transform="translate(-29.697229,-60.6339)">
    <path
       style="fill:#ffffff;fill-opacity:1;stroke-width:0.352777"
       d="m 101.57138,215.09261 c -12.086876,-0.81277 -20.962176,-2.87919 -24.064225,-5.60282 -1.272147,-1.11696 -1.400678,-1.69317 -1.977616,-8.86561 -0.291629,-3.62552 -0.588978,-7.25927 -0.660771,-8.075 -0.0718,-0.81573 -0.07042,-1.48315 0.0032,-1.48315 0.07348,0 1.157012,0.48274 2.407841,1.07275 l 2.274237,1.07276 0.145108,2.1682 c 0.216562,3.23594 0.248019,3.32852 1.373391,4.04221 4.160018,2.63821 14.919152,4.39414 26.867255,4.38484 14.85056,-0.0116 26.69401,-2.29893 30.10034,-5.81337 0.78413,-0.80902 0.68147,0.0103 1.87297,-14.94738 0.19253,-2.41698 0.39489,-4.83946 0.44969,-5.38328 l 0.0996,-0.98877 -0.35226,0.94772 c -0.37036,0.99641 -1.55222,2.28069 -2.74971,2.988 l -0.71124,0.4201 0.6959,-0.96942 c 2.36579,-3.2956 2.42475,-9.18244 0.12219,-12.19896 -0.87616,-1.14784 -0.40911,-1.02003 1.03276,0.28262 1.13885,1.02889 1.67798,1.94524 1.99012,3.38266 0.33335,1.53507 0.32757,1.56556 0.73301,-3.86148 0.18959,-2.53783 0.48944,-6.29514 0.66632,-8.34958 0.86504,-10.04738 1.06452,-12.53293 1.64877,-20.54436 0.11016,-1.51062 0.45129,-5.66343 0.75805,-9.22848 0.30677,-3.56506 0.80791,-9.7388 1.11365,-13.71945 0.30575,-3.98065 0.57841,-7.25839 0.60593,-7.28389 0.0275,-0.0255 0.61858,0.0525 1.31346,0.17322 l 1.26342,0.21957 v 1.02018 c 0,0.56109 -0.29385,4.58048 -0.65302,8.93198 -0.35916,4.3515 -0.85187,10.4826 -1.09489,13.62468 -0.66548,8.60381 -1.47963,18.59104 -2.09569,25.70792 -0.30338,3.50463 -0.79715,9.43722 -1.09727,13.18355 -0.30012,3.74632 -0.74201,9.08566 -0.98197,11.86519 -0.49113,5.68889 -1.20274,14.35487 -1.65092,20.10491 -0.3247,4.16578 -0.55843,5.02223 -1.67539,6.1392 -2.34781,2.34781 -10.64555,4.53819 -20.41381,5.3887 -3.42567,0.29827 -14.04322,0.41696 -17.35833,0.19404 z m 17.68792,-2.26744 c 3.0349,-0.28732 7.20973,-0.92145 7.45029,-1.13166 0.19992,-0.1747 1.03099,-6.81484 0.87428,-6.98545 -0.0459,-0.05 -1.19611,0.03 -2.55606,0.17776 -8.69502,0.94449 -22.43183,0.77055 -30.574223,-0.38714 l -1.295056,-0.18413 0.154498,3.85473 c 0.08497,2.12011 0.19371,3.91818 0.241634,3.99573 0.09764,0.15799 4.291202,0.59241 8.456167,0.876 3.22342,0.21948 14.08595,0.0836 17.24847,-0.21584 z m -19.21724,-1.8634 c -0.583694,-0.70331 0.27361,-1.78368 1.03494,-1.30423 0.76076,0.47909 0.48972,1.62326 -0.38453,1.62326 -0.2121,0 -0.50479,-0.14356 -0.65041,-0.31903 z m -15.169841,-1.17864 c 0,-0.27065 -0.418675,-0.59917 -1.301139,-1.02095 -1.39346,-0.66601 -1.547253,-0.91173 -1.552294,-2.48014 -0.0032,-1.03323 0.09637,-1.08183 1.239382,-0.60425 1.105238,0.4618 1.174904,0.43242 1.172184,-0.49438 -0.0061,-2.09597 -0.154713,-2.37208 -1.504168,-2.7956 -0.681991,-0.21405 -1.907403,-0.7244 -2.723135,-1.13413 l -1.483147,-0.74497 v 0.63004 c 0,1.56993 0.477871,6.28767 0.674022,6.65418 0.264484,0.4942 1.10732,0.94483 3.281041,1.75424 1.966309,0.73219 2.197254,0.75699 2.197254,0.23596 z m 50.897061,-0.81707 c 0.88465,-0.4255 1.69797,-0.94392 1.80736,-1.15205 0.21247,-0.40426 0.68893,-4.82981 0.68893,-6.39915 v -0.94378 l -0.71411,0.47817 c -0.39276,0.26299 -1.45569,0.8286 -2.36205,1.25692 -0.90637,0.42832 -1.66029,0.79139 -1.67537,0.80683 -0.0151,0.0155 -0.0972,0.60327 -0.18245,1.30628 l -0.15503,1.2782 0.66593,-0.34436 c 1.1461,-0.59268 1.34692,-0.47874 1.34692,0.76425 0,1.23366 -0.57307,2.04699 -1.62902,2.31202 -0.34931,0.0877 -0.56824,0.29582 -0.56824,0.54028 0,0.21871 -0.066,0.56974 -0.14674,0.78006 -0.21185,0.55206 0.89064,0.29428 2.92387,-0.68367 z m -17.85964,-8.78373 c -0.20896,-0.54455 0.48634,-1.15353 0.96926,-0.84891 0.20921,0.13197 0.3804,0.42693 0.3804,0.65545 0,0.55444 -1.14799,0.71899 -1.34966,0.19346 z M 91.138169,199.0584 c -0.905892,-0.90589 0.318511,-2.43398 1.513856,-1.88935 0.628295,0.28627 0.812095,1.4769 0.3061,1.98289 -0.37776,0.37776 -1.40126,0.32515 -1.819956,-0.0935 z m -8.435236,-0.77849 c -0.321874,-0.84787 -0.396842,-3.97243 -0.09778,-4.07517 0.472657,-0.16239 0.797109,0.89129 0.818121,2.6569 0.02141,1.8002 -0.320096,2.4726 -0.720345,1.41827 z m 17.346307,-1.20105 c -0.250474,-0.31842 -0.455394,-0.75003 -0.455394,-0.95914 0,-0.2091 0.20492,-0.64071 0.455394,-0.95913 0.89786,-1.14145 2.84049,-0.43823 2.84049,1.02823 0,1.407 -1.95258,2.01883 -2.84049,0.89004 z m 22.47554,-0.1901 c -0.17407,-0.4536 0.0619,-0.98876 0.43605,-0.98876 0.54162,0 0.89974,0.60725 0.58312,0.98876 -0.15045,0.18128 -0.41285,0.32959 -0.58312,0.32959 -0.17027,0 -0.36649,-0.14831 -0.43605,-0.32959 z m 8.39251,-0.96453 c -0.62725,-1.21296 -0.85923,-3.74155 -0.58423,-6.36799 0.31955,-3.05189 0.73161,-4.27102 1.69084,-5.00267 1.1962,-0.91238 1.33799,-0.68821 1.50289,2.376 0.0802,1.48954 0.24793,3.43379 0.37282,4.32056 0.43438,3.08404 -0.28113,5.13627 -1.83623,5.26665 -0.7032,0.059 -0.84786,-0.0158 -1.14609,-0.59255 z m -17.98438,-0.0439 c -1.03924,-0.54846 -1.48376,-1.38292 -0.99633,-1.87035 0.44975,-0.44975 4.28094,-1.43314 4.93946,-1.26786 0.2874,0.0721 0.71299,0.37327 0.94576,0.66919 0.41008,0.52133 0.44096,0.52642 0.99421,0.16392 1.02012,-0.66841 1.10666,-1.12766 0.34632,-1.83792 -0.85125,-0.79519 -0.86427,-1.65262 -0.0502,-3.30564 0.71869,-1.45937 1.14675,-1.59078 2.04601,-0.62812 0.62627,0.67042 0.66981,0.81658 0.56006,1.87997 -0.22498,2.17983 -2.41465,5.13144 -4.58692,6.18302 -1.26548,0.61261 -3.05257,0.61848 -4.19835,0.0138 z m -4.11479,-0.38086 c -4.18311,-2.78454 -5.48523,-7.1994 -3.24265,-10.99421 2.07107,-3.5046 6.55333,-5.64036 9.83863,-4.68803 0.76903,0.22293 0.76903,0.22293 -0.26698,0.24274 -1.47142,0.0282 -2.92698,0.57692 -4.50633,1.69897 -2.55168,1.81285 -3.65807,4.11939 -3.67393,7.6592 -0.0113,2.52813 0.48491,3.93542 1.96566,5.57444 0.85872,0.95051 0.81867,1.12799 -0.1144,0.50689 z M 62.003999,194.0618 c -7.160915,-2.50202 -13.212197,-8.9539 -15.174788,-16.17938 -0.436282,-1.60622 -0.510528,-2.42359 -0.530565,-5.84101 l -0.02328,-3.97346 -1.001098,-2.069 c -2.46479,-5.09407 -2.429071,-7.3191 0.165865,-10.33207 1.80164,-2.09187 1.815652,-2.48137 0.202532,-5.6299 -2.451458,-4.78481 -1.825244,-7.07494 2.650865,-9.69452 3.141052,-1.83826 5.35065,-4.01359 5.810152,-5.72005 0.192267,-0.71402 0.122339,-1.16492 -0.484147,-3.12185 -1.40954,-4.54812 -0.866902,-8.09798 1.589022,-10.39521 3.405108,-3.18509 8.987187,-3.93639 16.260419,-2.18852 9.118071,2.1912 12.130623,3.59315 13.791259,6.41803 0.900631,1.53206 0.896451,5.25385 -0.008,7.09552 -2.141064,4.35986 -8.158663,5.8707 -14.552332,3.65366 -1.882168,-0.65265 -1.896487,-0.78674 -0.07066,-0.66185 2.150688,0.14711 1.902185,-0.001 -1.357551,-0.81227 -8.324652,-2.07032 -10.999749,-4.07415 -11.74228,-8.79576 l -0.260204,-1.65459 -0.518092,1.31836 c -1.290671,3.28429 -0.476244,6.48575 2.313904,9.09579 0.788547,0.73765 1.528983,1.34118 1.64541,1.34118 0.116427,0 0.211687,0.0774 0.211687,0.17205 0,0.0946 -0.715124,0.3043 -1.589163,0.46595 -0.874039,0.16164 -1.70184,0.33714 -1.839557,0.38999 -0.357581,0.13722 -1.696904,2.04949 -1.543126,2.20326 0.07059,0.0706 0.995663,0.0169 2.055714,-0.11939 6.643018,-0.85389 9.426206,-0.57041 17.967339,1.83009 1.45019,0.40757 4.663677,1.30111 7.141086,1.98563 2.477408,0.68452 6.165341,1.78966 8.195408,2.45587 3.833601,1.25808 4.123538,1.43768 4.447404,2.755 0.148212,0.60284 0.148212,0.60284 -0.602419,0.2892 -3.642908,-1.5221 -7.480845,-1.79445 -9.314238,-0.66095 -2.399921,1.48376 -3.343927,5.29471 -1.985875,8.017 0.355056,0.71172 0.258116,0.77112 -0.671044,0.4112 -0.340204,-0.13178 -3.090464,-0.8625 -6.111691,-1.62382 -8.72325,-2.19816 -9.577527,-2.55497 -10.53153,-4.39876 -0.545928,-1.05512 -0.747477,-4.95405 -0.363472,-7.03132 0.130428,-0.70555 0.194912,-1.32504 0.143301,-1.37665 -0.152054,-0.15205 -1.925274,1.15665 -2.805519,2.07058 -1.498679,1.55603 -2.180459,3.92717 -1.731335,6.02137 0.135554,0.63205 0.212689,1.18296 0.171414,1.22423 -0.04128,0.0413 -3.029483,-0.66871 -6.640458,-1.57776 -3.610978,-0.90904 -6.690015,-1.62465 -6.842309,-1.59026 -0.725058,0.16378 1.844694,3.97485 3.542808,5.25417 1.180927,0.88967 1.176774,0.8697 0.289725,1.39369 l -0.707409,0.41788 0.652478,0.17739 c 0.74184,0.20169 3.922886,0.50099 8.886832,0.83617 4.898084,0.33073 7.105738,0.73832 13.288168,2.45336 5.819116,1.61425 9.030794,2.33981 15.858053,3.58255 8.320711,1.51459 10.596048,2.27065 12.464868,4.14193 1.49124,1.49321 1.79284,2.32265 1.77322,4.87662 -0.0245,3.19068 -1.09646,5.19556 -3.54521,6.63063 -1.222674,0.71653 -1.341404,0.58174 -0.54331,-0.6168 2.78979,-4.18963 2.50369,-8.70261 -0.682244,-10.76178 -3.06969,-1.98403 -9.508856,-3.09767 -11.804116,-2.04149 -3.087422,1.42071 -4.227328,4.80954 -2.704102,8.03906 0.7912,1.67749 0.890118,1.66385 -1.868753,0.25749 -2.492542,-1.2706 -5.118837,-2.10416 -9.926574,-3.15058 -4.942202,-1.07569 -6.546901,-1.76925 -7.473246,-3.22994 -0.77668,-1.2247 -1.195631,-3.54757 -1.031427,-5.71874 l 0.120716,-1.59614 -0.587055,0.30872 c -0.763698,0.40161 -2.315749,2.0299 -2.739155,2.87371 -0.545311,1.08675 -0.654358,2.51353 -0.284482,3.72219 0.18319,0.5986 0.302488,1.11896 0.265112,1.15633 -0.176996,0.177 -6.692228,-1.08693 -8.203388,-1.59142 -1.882434,-0.62843 -4.128392,-1.78602 -5.367149,-2.76628 -1.051049,-0.83172 -1.098843,-0.8092 -0.749076,0.35299 0.651875,2.16601 2.534012,4.56657 4.592583,5.85756 0.622566,0.39044 1.171754,0.73918 1.220416,0.775 0.04866,0.0358 -0.187091,0.28188 -0.523898,0.54681 -0.61237,0.48169 -0.61237,0.48169 -0.08848,0.67619 1.279037,0.47485 3.855103,0.85721 7.111668,1.05558 6.141737,0.3741 7.025682,0.53859 15.243749,2.83659 1.735159,0.48519 4.998088,1.18397 7.250948,1.55282 9.592498,1.57056 12.3939,2.29664 14.389035,3.72944 3.585708,2.57506 3.450838,7.9995 -0.257369,10.35118 -1.25417,0.79537 -1.50402,0.80363 -0.961869,0.0318 1.428318,-2.03337 1.963388,-5.10517 1.196335,-6.86809 -0.997602,-2.29279 -2.315568,-3.19859 -6.058132,-4.16357 -5.360411,-1.38212 -8.338639,-0.51999 -9.375859,2.71411 -0.341508,1.06484 -0.177654,3.10612 0.32779,4.08354 0.436914,0.8449 0.634726,0.86081 -2.195043,-0.17659 -0.966791,-0.35443 -2.99376,-0.86075 -4.504374,-1.12517 -6.601112,-1.15542 -8.984149,-2.20326 -9.943599,-4.37225 -0.47096,-1.06469 -0.614096,-3.21306 -0.312821,-4.69523 0.165755,-0.81546 0.165755,-0.81546 -0.543654,-0.56815 -1.239367,0.43204 -2.545709,1.94886 -2.728557,3.16818 -0.280415,1.86995 0.326213,3.31414 2.599738,6.18912 l 1.092817,1.38192 -1.289212,-0.56786 c -2.389376,-1.05245 -4.008878,-2.33626 -5.503186,-4.36248 -0.888055,-1.20417 -0.949241,-1.24688 -0.944341,-0.65918 0.0028,0.34563 0.09135,0.99921 0.196588,1.45239 0.236103,1.01672 0.06881,1.0381 -1.42376,0.18199 -1.457383,-0.83593 -3.380463,-2.93583 -4.606136,-5.02965 -0.983428,-1.67999 -0.983428,-1.67999 -0.983428,-0.79083 0,1.95214 1.274455,5.53027 3.018867,8.4757 2.057273,3.4737 6.084824,7.38634 9.582021,9.30864 2.248975,1.23619 2.028084,1.29144 -0.972178,0.24315 z m 18.131296,-58.96519 c 4.106569,-1.2998 5.137777,-7.63393 1.687679,-10.36646 -2.623557,-2.07789 -9.08788,-3.3836 -11.72118,-2.36753 -2.21622,0.85514 -3.587018,3.19258 -3.56655,6.08155 0.02198,3.09973 1.927829,4.87403 6.836478,6.36456 3.041875,0.92368 4.551805,0.98794 6.763573,0.28788 z m -4.767006,-2.36992 c -2.979971,-0.67689 -3.521627,-0.96099 -4.096558,-2.14863 -1.224797,-2.5301 -0.08132,-5.44323 2.429265,-6.18879 1.800681,-0.53474 7.110028,0.48199 8.040134,1.53968 0.869097,0.98831 0.629582,4.02299 -0.44175,5.59703 -1.200368,1.76363 -2.391381,2.00474 -5.931091,1.20071 z m 49.318231,60.71238 c -0.36284,-0.36285 -0.33048,-1.38675 0.0682,-2.15771 0.77163,-1.49217 2.06994,-1.15409 1.35175,0.35199 -0.20089,0.42127 -0.36526,1.05922 -0.36526,1.41767 0,0.70101 -0.54222,0.90051 -1.05468,0.38805 z m 11.95836,-1.71386 c -0.17278,-2.10283 0.12632,-6.36066 0.51708,-7.36082 0.24755,-0.63364 0.26967,-0.64265 0.57071,-0.23266 0.17224,0.23459 0.31317,0.78136 0.31317,1.21506 0,1.21449 -0.62877,5.91755 -0.95557,7.14746 l -0.29193,1.09863 z m -47.358887,-3.72914 c -1.379169,-0.34504 -2.73895,-0.73276 -3.021732,-0.86161 -1.319239,-0.60108 -1.8323,-3.13308 -0.975268,-4.81301 0.95432,-1.87062 2.991898,-2.21148 7.051339,-1.17958 2.766167,0.70315 2.925209,0.88654 2.794682,3.22252 -0.136182,2.43727 -1.090528,3.91065 -2.693742,4.15879 -0.35623,0.0551 -1.776106,-0.18206 -3.155279,-0.52711 z m 12.875897,-4.98208 c -0.31103,-0.31102 -0.13503,-0.73699 0.3045,-0.73699 0.30717,0 0.43242,0.11932 0.38452,0.36631 -0.0784,0.4044 -0.45351,0.60619 -0.68902,0.37068 z m 25.88356,-0.69278 c -2.46588,-0.85268 -4.52252,-2.59552 -5.45166,-4.61985 -0.79099,-1.72332 -0.68452,-4.56925 0.24134,-6.45167 1.56919,-3.19036 5.11562,-5.26816 8.90441,-5.21696 1.88607,0.0255 2.23006,0.3383 0.52275,0.47534 -4.3087,0.34586 -7.36339,3.73903 -7.56939,8.40811 -0.14283,3.23714 1.11918,5.63136 3.76963,7.15154 1.27891,0.73353 1.16731,0.80136 -0.41708,0.25349 z m 2.7809,-0.8117 c -1.58653,-0.49493 -2.48466,-1.66077 -1.73433,-2.2513 0.50358,-0.39634 3.40566,-1.156 4.41616,-1.156 1.15276,0 1.68123,0.52133 1.68123,1.65853 0,1.56944 -2.16117,2.43567 -4.36306,1.74877 z m 2.1658,-6.04401 c -0.92761,-0.92761 -0.14989,-2.63671 1.19982,-2.63671 0.68934,0 1.43689,0.88682 1.43689,1.70458 0,1.24578 -1.71631,1.85253 -2.63671,0.93213 z m -23.14701,-0.1821 c -0.71383,-0.78878 -0.19439,-1.79543 0.92647,-1.79543 0.75308,0 1.12687,0.36442 1.12687,1.09862 0,1.08317 -1.3034,1.52549 -2.05334,0.69681 z m -15.805197,-1.14679 c -3.057574,-0.76024 -3.77012,-1.09299 -4.337176,-2.02544 -1.637874,-2.69327 0.340683,-6.31361 3.450461,-6.31361 1.229483,0 6.368538,1.29941 6.926772,1.75144 1.01193,0.81941 0.7551,4.55431 -0.408244,5.93687 -1.257243,1.49414 -1.928034,1.57165 -5.631813,0.65074 z m 22.677217,-1.87556 c -0.38539,-0.46437 -7e-4,-1.0802 0.67447,-1.0802 0.67534,0 1.05985,0.61583 0.67446,1.0802 -0.15885,0.19141 -0.46236,0.34801 -0.67446,0.34801 -0.21211,0 -0.51561,-0.1566 -0.67447,-0.34801 z m 17.28365,-1.9865 c -0.0814,-0.21218 -0.0139,-0.51221 0.15275,-0.67887 0.4202,-0.4202 1.07481,-0.1171 0.99253,0.45957 -0.0843,0.59079 -0.93986,0.75461 -1.14528,0.2193 z m -14.65069,-2.12192 c -0.9164,-0.70359 -1.08238,-1.79319 -0.40447,-2.65502 0.97228,-1.23606 3.06022,-0.43174 3.06022,1.17885 0,1.36931 -1.62123,2.27045 -2.65575,1.47617 z m -12.1603,-1.67884 c -0.41689,-0.46065 -0.43969,-0.61362 -0.78856,-5.29047 -0.13071,-1.75231 -0.38884,-4.94625 -0.57362,-7.09763 -0.26218,-3.05257 -0.27798,-3.98147 -0.072,-4.22972 0.21635,-0.26069 1.17066,-0.31812 5.28661,-0.31812 5.0226,0 5.0226,0 5.15166,0.5142 0.11065,0.44087 -0.19199,6.15458 -0.74487,14.06266 -0.20044,2.86711 -0.0638,2.78148 -4.43745,2.78148 -3.11422,0 -3.47572,-0.0399 -3.82182,-0.4224 z m 2.02801,-2.03853 c 0.63015,-0.63015 0.14875,-1.71386 -0.76131,-1.71386 -0.46,0 -0.95255,0.5525 -0.95255,1.06849 0,0.69914 1.20597,1.15326 1.71386,0.64537 z m 2.41698,0 c 0.60128,-0.60127 0.0788,-1.71386 -0.80481,-1.71386 -0.31881,0 -0.90905,0.642 -0.90905,0.98877 0,0.76855 1.1738,1.26516 1.71386,0.72509 z m 2.41699,0 c 0.56032,-0.56032 0.16527,-1.71386 -0.58695,-1.71386 -0.41097,0 -1.12691,0.63984 -1.12691,1.00713 0,0.75252 1.18104,1.23954 1.71386,0.70673 z m -5.9326,-2.19726 c 0.61922,-0.61921 -0.12662,-2.04177 -0.8395,-1.60119 -0.48061,0.29704 -0.10733,1.86487 0.444,1.86487 0.0725,0 0.25048,-0.11866 0.3955,-0.26368 z m 2.41698,0 c 0.46642,-0.46642 0.3101,-1.26267 -0.3027,-1.54189 -0.68957,-0.31418 -1.26752,-0.0252 -1.37309,0.68654 -0.13795,0.92998 1.01347,1.51768 1.67579,0.85535 z m 2.41699,0 c 0.14502,-0.14502 0.26367,-0.47131 0.26367,-0.72509 0,-0.25378 -0.11865,-0.58008 -0.26367,-0.7251 -0.14502,-0.14502 -0.47131,-0.26367 -0.7251,-0.26367 -0.25378,0 -0.58007,0.11865 -0.72509,0.26367 -0.14502,0.14502 -0.26367,0.47132 -0.26367,0.7251 0,0.25378 0.11865,0.58007 0.26367,0.72509 0.14502,0.14502 0.47131,0.26368 0.72509,0.26368 0.25379,0 0.58008,-0.11866 0.7251,-0.26368 z m 1.9798,-0.88989 c 0.0564,-0.68131 -0.002,-0.82397 -0.34057,-0.82397 -0.54272,0 -0.93611,0.41859 -0.93611,0.99609 0,1.17639 1.17823,1.01754 1.27668,-0.17212 z m -5.6712,-1.70287 c 0.44397,-0.82956 -0.48176,-1.76608 -1.30842,-1.32367 -0.52329,0.28006 -0.65254,0.66357 -0.42759,1.26874 0.24383,0.65594 1.39487,0.69236 1.73601,0.0549 z m 2.50357,-0.0549 c 0.34789,-0.55562 -0.0882,-1.13828 -0.91393,-1.22101 -0.74681,-0.0748 -1.08164,0.45346 -0.81662,1.28846 0.17922,0.56469 1.36365,0.51853 1.73055,-0.0675 z m 2.50803,-0.31499 c 0.0788,-0.81344 -0.44465,-1.22293 -1.19884,-0.93787 -0.63444,0.2398 -0.80501,0.56582 -0.64001,1.22324 0.12058,0.48044 0.24076,0.54111 0.95452,0.48189 0.74009,-0.0614 0.82291,-0.13326 0.88433,-0.76726 z m -6.10578,-1.83564 c 0.46228,-0.86378 -0.21234,-1.70262 -1.13403,-1.41009 -0.41144,0.13059 -0.53799,0.82526 -0.27512,1.51028 0.19161,0.49934 1.12376,0.43307 1.40915,-0.10019 z m 2.18278,0.13026 c 0.62495,-0.75303 -0.23698,-2.02602 -1.03366,-1.52661 -0.78406,0.49149 -0.50202,1.8441 0.38452,1.8441 0.2121,0 0.50421,-0.14287 0.64914,-0.31749 z m 2.62103,-0.16869 c 0.0989,-0.26741 0.1345,-0.65964 0.0791,-0.87163 -0.24117,-0.92222 -1.81116,-0.60507 -1.81116,0.36586 0,0.95321 1.41386,1.36605 1.7321,0.50577 z m 2.22297,-0.62707 c 0,-0.73434 -0.5042,-1.06874 -1.07356,-0.71201 -0.50891,0.31884 -0.58089,1.19675 -0.12544,1.52978 0.57355,0.4194 1.199,-0.007 1.199,-0.81777 z m -5.84601,-1.79811 c 0.34853,-0.55665 -0.0888,-1.13836 -0.91811,-1.22133 -0.84156,-0.0842 -1.30592,0.56689 -0.91941,1.28909 0.29873,0.55819 1.47269,0.5149 1.83752,-0.0678 z m 2.28645,0.23071 c 0.85342,-0.85342 -0.37941,-2.19424 -1.27351,-1.38508 -0.75431,0.68263 -0.43295,1.64875 0.54842,1.64875 0.25378,0 0.58007,-0.11865 0.72509,-0.26367 z m 2.68066,-0.17578 c 0.34664,-0.64771 -0.082,-1.31836 -0.84269,-1.31836 -0.68088,0 -1.13484,0.35158 -1.13484,0.87891 0,0.90011 1.547,1.24389 1.97753,0.43945 z m -7.54488,-0.71411 c -0.061,-0.15106 -0.11083,-0.0275 -0.11083,0.27466 0,0.30212 0.0499,0.42571 0.11083,0.27466 0.061,-0.15107 0.061,-0.39826 0,-0.54932 z m 8.35632,-0.10568 c -0.0557,-0.21379 -0.10495,-0.0921 -0.10943,0.27047 -0.004,0.36255 0.0411,0.53747 0.10129,0.38871 0.0602,-0.14877 0.0639,-0.4454 0.008,-0.65918 z m -7.14586,-1.08194 c 0.76183,-0.68944 0.29039,-1.72528 -0.7172,-1.57582 -0.7654,0.11353 -1.00484,0.69464 -0.56366,1.36796 0.43538,0.66448 0.72447,0.71139 1.28086,0.20786 z m 2.59908,-0.29553 c 0.4942,-0.92342 -0.74832,-1.8005 -1.49413,-1.05468 -0.28422,0.28421 -0.35593,1.1089 -0.11719,1.34765 0.32731,0.32732 1.38198,0.13556 1.61132,-0.29297 z m 2.41698,0 c 0.4942,-0.92342 -0.74832,-1.8005 -1.49413,-1.05468 -0.34568,0.34568 -0.33866,1.20753 0.011,1.34861 0.61881,0.2497 1.26024,0.12258 1.48315,-0.29393 z m 2.28356,-0.0549 c 0.53959,-0.86078 -0.95467,-1.73663 -1.55714,-0.91271 -0.37054,0.50675 -0.36174,0.64175 0.07,1.0735 0.43655,0.43655 1.16184,0.35813 1.48713,-0.16079 z m 12.97926,5.82595 c -2.04997,-2.02679 -6.87461,-6.78479 -10.72142,-10.57339 l -6.9942,-6.88837 -3.50513,3.46235 -3.50513,3.46234 -0.65753,-0.62995 -0.65752,-0.62995 3.46645,-3.47783 3.46646,-3.47782 -8.67916,-8.49238 c -4.773548,-4.6708 -11.179772,-10.97261 -14.236062,-14.00403 l -5.556893,-5.51166 0.613065,-0.58289 0.613062,-0.5829 2.634373,2.55716 c 1.448903,1.40644 7.857011,7.6842 14.240238,13.95059 6.383227,6.26638 11.697227,11.36242 11.808897,11.32452 0.11167,-0.0379 5.02493,-4.81649 10.91835,-10.61909 20.20449,-19.89308 18.27498,-18.13954 18.98923,-17.25748 0.23084,0.28508 0.39174,0.59004 0.35756,0.67769 -0.0628,0.16098 -13.1559,13.08105 -23.45075,23.14082 l -5.58663,5.45907 5.58872,5.52876 c 3.0738,3.04081 7.89732,7.79061 10.71894,10.55509 l 5.13022,5.02634 -0.63396,0.63396 -0.63396,0.63396 z m -6.63967,3.2037 c -0.37851,-0.37852 -0.34237,-1.18413 0.0717,-1.59821 0.89391,-0.89391 2.43958,0.0757 1.83783,1.15288 -0.36731,0.65755 -1.4458,0.90906 -1.90954,0.44533 z m 14.60871,-0.39028 c -1.77445,-1.55799 -2.55279,-4.36636 -1.82087,-6.56996 0.44304,-1.33388 2.0089,-3.16551 3.24555,-3.7964 l 0.86576,-0.44168 -0.88845,1.17675 c -2.16244,2.86414 -2.50525,5.86982 -1.03559,9.07998 0.63388,1.38455 0.61499,1.41297 -0.3664,0.55131 z m 2.82133,-0.14069 c -0.46284,-0.46284 -0.43582,-0.66501 0.14306,-1.07048 1.08026,-0.75664 1.92856,-0.28918 1.50359,0.82855 -0.25825,0.67928 -1.08747,0.80111 -1.64665,0.24193 z m -40.285642,-1.37489 c 1.416952,-1.56839 2.037682,-3.18627 2.037682,-5.31105 0,-2.21067 -0.44057,-3.30516 -2.059604,-5.11658 -1.783377,-1.9953 -1.814527,-2.07068 -0.577111,-1.39651 2.900795,1.58042 4.314525,3.11192 4.732885,5.12714 0.63525,3.06002 -0.82768,5.89578 -3.670124,7.11419 -1.324503,0.56775 -1.340533,0.55333 -0.463728,-0.41719 z m -5.652726,-2.03855 c -3.968037,-1.07363 -5.034812,-1.80634 -5.380255,-3.69543 -0.243567,-1.33196 0.124199,-2.68579 1.011037,-3.72186 1.366797,-1.5968 3.113531,-1.65642 7.572461,-0.25847 2.465467,0.77296 2.777321,1.05216 2.965331,2.6547 0.24778,2.11214 -0.887742,4.62592 -2.417526,5.35185 -0.934833,0.44361 -0.866726,0.44962 -3.751048,-0.33079 z m 36.602198,-7.97509 c -0.44835,-0.54022 -0.21103,-1.33987 0.39764,-1.33987 0.68414,0 1.1008,0.62558 0.76831,1.15356 -0.32072,0.50928 -0.83034,0.59071 -1.16595,0.18631 z m 18.65882,-0.44667 c 0,-0.73897 0.43685,-1.39417 1.02767,-1.54133 1.13597,-0.28293 2.88432,-1.44039 3.96989,-2.62818 1.3601,-1.48816 2.039,-3.19572 2.19181,-5.51273 0.25243,-3.82778 -1.15881,-6.49226 -4.54596,-8.58293 -1.18454,-0.73114 -1.33076,-0.8966 -1.23428,-1.39665 0.0602,-0.31199 0.17521,-1.4353 0.25558,-2.49624 0.16753,-2.21138 0.0807,-2.17319 2.29422,-1.00899 8.02692,4.22181 9.90403,13.50726 3.95119,19.54527 -2.37388,2.40785 -7.91012,4.94271 -7.91012,3.62178 z m -24.29904,-2.40249 c -0.16492,-0.42977 0.0598,-0.79783 0.48705,-0.79783 0.21572,0 0.30732,0.16703 0.26169,0.47717 -0.0853,0.57942 -0.56982,0.78694 -0.74874,0.32066 z m -35.516097,-4.4769 c -0.844441,-0.52365 -0.907764,-0.88386 -0.217353,-1.23636 0.453802,-0.2317 0.690264,-0.24526 0.987461,-0.0567 0.607213,0.38533 0.810539,-0.16994 0.814353,-2.22393 0.0035,-1.81274 0.0035,-1.81274 0.662539,-1.81274 0.659177,0 0.659177,0 0.659177,2.17928 0,2.54449 -0.06671,2.784 -0.894617,3.21213 -0.798499,0.41292 -1.269463,0.39847 -2.01156,-0.0617 z m 4.975987,-0.0181 c -2.436903,-1.53302 -1.391926,-5.52968 1.445802,-5.52968 0.648953,0 2.197258,0.6755 2.197258,0.95863 0,0.36809 -1.150701,0.78513 -1.560786,0.56566 -1.089681,-0.58318 -2.134696,0.4508 -1.834946,1.81558 0.167813,0.76404 1.004662,1.36386 1.627168,1.16629 0.578645,-0.18366 0.586844,-0.77246 0.01076,-0.77246 -0.322262,0 -0.439451,-0.14648 -0.439451,-0.54931 0,-0.52303 0.06122,-0.54932 1.278963,-0.54932 h 1.27896 l -0.142328,1.10946 c -0.186093,1.45058 -0.736071,1.9997 -2.122603,2.11929 -0.788812,0.068 -1.236136,-0.0179 -1.738793,-0.33414 z m 4.220477,0.22703 c -0.05923,-0.0958 0.132285,-0.76326 0.425597,-1.48315 0.293309,-0.7199 0.737317,-1.92031 0.986692,-2.66759 0.39707,-1.18991 0.53636,-1.37692 1.121234,-1.50538 0.86205,-0.18934 0.89213,-0.15077 1.80496,2.31475 1.12301,3.03319 1.15376,3.22278 0.55371,3.41323 -0.38774,0.12306 -0.60378,0.0289 -0.96071,-0.41874 -0.63619,-0.79787 -1.887364,-0.81255 -2.401304,-0.0282 -0.348021,0.53115 -1.290883,0.76226 -1.530179,0.37507 z m 3.157923,-2.11857 c 0,-0.0525 -0.10455,-0.37055 -0.23234,-0.70666 -0.18601,-0.48924 -0.27297,-0.54687 -0.43609,-0.28896 -0.354104,0.55987 -0.2426,1.09118 0.22898,1.09118 0.2417,0 0.43945,-0.043 0.43945,-0.0956 z m 21.09367,1.85337 c -0.30195,-0.56418 -2.41699,-0.66032 -2.41699,-0.10987 0,0.23138 -0.23358,0.32959 -0.78384,0.32959 -0.90852,0 -0.93665,0.25323 0.35364,-3.18358 0.76886,-2.04793 0.87064,-2.20435 1.52084,-2.33733 0.61046,-0.12486 0.72517,-0.0707 0.92538,0.437 0.6464,1.63916 1.93905,5.10351 1.93905,5.19675 0,0.34131 -1.33152,0.0534 -1.53808,-0.33256 z m -0.96526,-2.32509 c -0.0734,-0.19116 -0.13337,-0.44419 -0.13337,-0.56229 0,-0.35813 -0.37848,-0.006 -0.50222,0.46697 -0.0878,0.33572 -0.009,0.44288 0.32657,0.44288 0.31313,0 0.40342,-0.10156 0.30902,-0.34756 z m 3.32731,2.61537 c -0.34007,-0.0909 -0.38452,-0.41844 -0.38452,-2.83324 v -2.73046 h 1.48919 c 1.76893,0 2.38646,0.34205 2.5916,1.4355 0.20285,1.08129 -0.32044,1.79243 -1.54603,2.10104 -0.93795,0.23618 -0.97612,0.27853 -1.04011,1.15392 -0.0676,0.92438 -0.28346,1.0942 -1.11013,0.87324 z m 1.9163,-3.44453 c 0.50644,-0.37032 0.30485,-1.02054 -0.31639,-1.02054 -0.34946,0 -0.44635,0.14309 -0.44635,0.65917 0,0.7298 0.15709,0.80423 0.76274,0.36137 z m 2.46999,3.4573 c -0.0861,-0.0861 -0.15657,-1.37605 -0.15657,-2.86652 v -2.70995 h 1.86767 c 1.84569,0 1.86766,0.006 1.86766,0.54931 0,0.5127 -0.0732,0.54932 -1.09863,0.54932 -0.94056,0 -1.09862,0.0613 -1.09862,0.42599 0,0.33718 0.20863,0.45727 1.00078,0.57606 0.92015,0.13798 0.99538,0.1966 0.93383,0.72757 -0.0589,0.50831 -0.17744,0.58553 -0.98923,0.6445 -0.92229,0.067 -0.92229,0.067 -0.98877,1.09863 -0.0593,0.92 -0.1268,1.03866 -0.62401,1.09665 -0.30665,0.0358 -0.628,-0.005 -0.71411,-0.0916 z m 4.38442,-0.0101 c -0.0806,-0.0806 -0.14648,-1.35232 -0.14648,-2.82612 v -2.67965 l 1.65331,-0.14982 c 1.86873,-0.16934 2.08203,-0.10259 2.08203,0.65149 0,0.49713 -0.0803,0.53635 -1.09863,0.53635 -0.94131,0 -1.09863,0.0611 -1.09863,0.42681 0,0.34506 0.17889,0.43977 0.93384,0.49439 0.82321,0.0596 0.94174,0.13573 1.00058,0.64309 0.0698,0.6021 -0.33844,0.843 -1.44004,0.84969 -0.34689,0.002 -0.49438,0.1341 -0.49438,0.44245 0,0.38086 0.14648,0.43945 1.09863,0.43945 1.07421,0 1.09863,0.0146 1.09863,0.65918 0,0.65918 0,0.65918 -1.72119,0.65918 -0.94665,0 -1.7871,-0.0659 -1.86767,-0.14649 z m 4.61424,0 c -0.0806,-0.0806 -0.14648,-1.36596 -0.14648,-2.85643 v -2.70995 h 0.63567 c 0.80956,0 0.90241,0.26183 0.90241,2.54482 v 1.84969 h 0.98877 c 0.95214,0 0.98876,0.0244 0.98876,0.65918 0,0.65918 0,0.65918 -1.61132,0.65918 -0.88623,0 -1.67724,-0.0659 -1.75781,-0.14649 z m -40.712242,-9.40111 c -0.157462,-0.41035 0.07257,-0.77956 0.485682,-0.77956 0.448989,0 0.660253,0.66125 0.286811,0.89771 -0.436879,0.27663 -0.632479,0.24671 -0.772493,-0.11815 z m 12.238002,-0.68923 c -1.408,-1.18477 -0.60553,-3.16649 1.28224,-3.16649 1.56256,0 2.37584,1.26635 1.67886,2.61415 -0.64543,1.24813 -1.86405,1.47544 -2.9611,0.55234 z m 20.10091,-2.19625 c -0.20225,-0.20225 -0.3126,-0.51138 -0.24522,-0.68696 0.0674,-0.17558 0.12249,-0.36058 0.12249,-0.41112 0,-0.27882 1.1338,-0.0362 1.25036,0.26756 0.30174,0.78633 -0.54683,1.41132 -1.12763,0.83052 z m -21.79713,-0.96366 c -1.19739,-0.49524 -1.53699,-2.08362 -0.63774,-2.98287 1.2676,-1.2676 3.83953,-0.0235 3.32204,1.60698 -0.32699,1.03025 -1.75288,1.76112 -2.6843,1.37589 z m 4.26114,-0.0242 c -0.57542,-0.33515 -1.08917,-1.46745 -0.91916,-2.02584 0.5192,-1.70537 2.91725,-1.92717 3.73518,-0.34548 0.81259,1.57138 -1.23259,3.29358 -2.81602,2.37132 z m -21.581484,-0.41122 c -0.210971,-0.34137 0.06439,-1.04732 0.469097,-1.20262 0.479762,-0.1841 0.987634,0.28739 0.908227,0.84317 -0.07192,0.50335 -1.11943,0.77672 -1.377324,0.35945 z m 48.003504,-0.23036 c -0.94227,-0.94226 -0.13243,-2.85643 1.20849,-2.85643 0.78584,0 1.64794,0.91435 1.64794,1.74782 0,0.90588 -0.68362,1.54806 -1.64794,1.54806 -0.47607,0 -0.93645,-0.16741 -1.20849,-0.43945 z m -32.71795,-2.9146 c -2.00224,-1.029 -1.50386,-3.45744 0.70956,-3.45744 2.1648,0 2.68425,2.58978 0.68685,3.42435 -0.88507,0.3698 -0.74756,0.36654 -1.39641,0.0331 z m 4.17779,-0.0287 c -1.15846,-0.64209 -1.38455,-1.76557 -0.55396,-2.75267 0.69373,-0.82446 1.90661,-0.9291 2.78257,-0.24006 1.83145,1.44062 -0.17286,4.13215 -2.22861,2.99273 z m 4.03076,-0.2327 c -1.60555,-1.60554 0.44777,-3.94671 2.52111,-2.87455 1.72516,0.89212 0.92524,3.41388 -1.08291,3.41388 -0.6614,0 -1.04137,-0.14249 -1.4382,-0.53933 z m 2.57764,-3.19784 c -0.6737,-0.28376 -0.41134,-0.65613 0.46654,-0.66217 0.38563,-0.003 1.13609,-0.20217 1.66769,-0.44336 1.01799,-0.46186 1.25576,-0.44005 1.04993,0.0963 -0.32026,0.83459 -2.19099,1.42752 -3.18416,1.00921 z m -12.99799,-0.27034 c -1.19945,-0.62665 -1.38889,-1.96127 -0.43305,-3.05088 0.45806,-0.52217 0.45806,-0.52217 0.34426,0.31369 -0.16147,1.18595 0.38807,1.69099 1.83996,1.69099 1.19418,0 1.38334,0.24277 0.59276,0.76078 -0.74476,0.48798 -1.72721,0.60761 -2.34393,0.28542 z m 4.11322,0.0348 c -0.21149,-0.12318 -0.38452,-0.37795 -0.38452,-0.56615 0,-0.2397 0.11515,-0.29477 0.38452,-0.18387 0.84113,0.34627 1.11896,0.34852 1.91605,0.0155 1.01595,-0.4245 1.01144,-0.42445 0.85193,-0.009 -0.29469,0.76794 -1.95855,1.21476 -2.76798,0.74331 z m 4.00999,-0.20213 c -0.75721,-0.75721 -0.30699,-2.13332 0.9026,-2.75883 0.82509,-0.42666 1.12043,-0.22208 1.94397,1.34662 0.53946,1.02756 0.53946,1.02756 0.0306,1.43961 -0.70647,0.57207 -2.2928,0.55696 -2.87716,-0.0274 z m 4.06045,-0.84764 c -0.96877,-0.44311 -1.52295,-1.33677 -1.29542,-2.08897 0.22181,-0.73326 0.99617,-1.45791 1.55792,-1.45791 0.50568,0 1.38992,0.68895 1.38992,1.08294 0,0.38953 -0.69351,0.8946 -1.22837,0.8946 -0.4767,0 -0.52071,-0.0687 -0.38731,-0.60425 0.13567,-0.54473 0.11444,-0.57454 -0.21554,-0.30268 -1.29153,1.06403 0.73505,2.32841 2.27448,1.41904 2.52693,-1.4927 0.85899,-5.28603 -2.42887,-5.52385 -1.15845,-0.0838 -1.49343,0.004 -3.43919,0.90134 -2.7117,1.25058 -2.89383,1.30175 -4.6582,1.30865 -1.00797,0.004 -1.28446,0.057 -0.90328,0.17332 1.21861,0.3719 3.54817,0.1247 5.32834,-0.56541 0.33251,-0.1289 0.38452,-0.0106 0.38452,0.87412 0,1.26118 -0.37192,2.00906 -1.51074,3.03792 -1.18987,1.07498 -3.15807,1.41218 -2.80027,0.47976 0.0892,-0.23248 -0.11242,-0.26891 -0.94354,-0.17048 -2.00817,0.23785 -3.08102,-0.48079 -2.4576,-1.64617 0.16663,-0.31149 -0.002,-0.43354 -1.06833,-0.77089 -1.33839,-0.42363 -2.86498,-1.50612 -2.86498,-2.03154 0,-0.51469 1.45928,-1.96975 2.40165,-2.3947 0.87903,-0.39639 0.87903,-0.39639 0.44718,-0.94539 -0.8595,-1.09269 -0.26493,-1.68777 1.93021,-1.93188 1.07568,-0.11961 1.37328,-0.23227 1.37328,-0.51983 0,-1.46273 2.9758,-0.98205 4.24825,0.68622 0.31447,0.4123 0.68198,1.26351 0.81668,1.89159 0.1347,0.62808 0.26143,1.14089 0.28163,1.13958 0.0202,-10e-4 0.5221,-0.14962 1.11534,-0.32958 3.42974,-1.04046 7.16109,1.07773 7.16109,4.06514 0,2.49146 -2.42531,4.2823 -4.50885,3.32931 z m 24.66869,-1.36722 c -0.47895,-0.27896 -0.49712,-0.93378 -0.0365,-1.31604 0.68499,-0.56848 1.54336,0.53335 0.96159,1.23434 -0.30962,0.37307 -0.40966,0.3819 -0.92507,0.0817 z m -15.22784,-3.73688 c -0.0812,-0.13138 -0.0418,-0.34472 0.0876,-0.47408 0.2742,-0.2742 0.9875,0.19495 0.78777,0.51812 -0.16724,0.2706 -0.69737,0.24393 -0.87535,-0.044 z m -55.359045,-0.52952 c -0.120851,-0.041 -0.581623,-0.13487 -1.023937,-0.20863 -0.910368,-0.15181 -0.905292,-0.13379 -1.187062,-4.21426 l -0.138468,-2.00526 1.380002,-0.24308 c 0.758999,-0.1337 1.424716,-0.19837 1.479368,-0.14371 0.08037,0.0804 0.656006,5.63143 0.689541,6.64949 0.0083,0.25169 -0.669496,0.34518 -1.199444,0.16545 z m 4.957138,-2.73391 c -0.543403,-0.54341 -0.573925,-1.0609 -0.102294,-1.73425 0.526342,-0.75146 1.843169,-0.5978 2.253825,0.263 0.610103,1.27888 -1.144251,2.47853 -2.151531,1.47125 z m 14.971981,-0.27699 c -0.47537,-0.47537 -0.312094,-1.45227 0.310965,-1.86051 1.084682,-0.71072 2.258934,0.49577 1.628688,1.6734 -0.273927,0.51184 -1.496947,0.62982 -1.939653,0.18711 z m 40.262566,-1.15378 c -0.45526,-0.69482 -0.23275,-1.39646 0.50126,-1.58069 0.74399,-0.18673 1.25252,0.15138 1.34051,0.89127 0.14451,1.2151 -1.17395,1.70864 -1.84177,0.68942 z m 55.34868,-0.93308 -2.45232,-0.79413 -1.1087,-3.75602 c -0.60979,-2.06581 -1.23237,-4.22568 -1.38351,-4.79971 -0.24497,-0.93035 -0.34146,-1.0437 -0.88842,-1.0437 h -0.61361 v 4.28465 c 0,3.281 -0.0643,4.28476 -0.27465,4.2851 -0.15107,2.5e-4 -1.12891,-0.15633 -2.17298,-0.34795 l -1.89832,-0.3484 -0.131,-5.52971 c -0.0721,-3.041345 -0.19155,-8.387522 -0.26555,-11.880394 l -0.13454,-6.35068 3.48222,0.129522 c 5.21619,0.194017 7.1646,0.969924 8.30892,3.308847 1.61899,3.309082 1.18512,9.34887 -0.79102,11.011683 -0.34646,0.291531 -0.62993,0.627088 -0.62993,0.745681 0,0.118593 0.84031,2.720491 1.86735,5.781991 1.02705,3.0615 1.8675,5.68996 1.86767,5.84102 3.5e-4,0.3665 0.0264,0.37152 -2.78161,-0.5378 z m -4.03516,-14.782478 c 0.61047,-0.610477 0.7186,-1.229977 0.63135,-3.617265 -0.0925,-2.529761 -0.51877,-3.167446 -2.24785,-3.362338 l -1.01462,-0.114363 0.001,1.291998 c 7.1e-4,0.710602 0.0651,2.404363 0.14344,3.763918 l 0.14244,2.471912 h 0.95519 c 0.65812,0 1.09013,-0.13493 1.38906,-0.433862 z M 33.146756,110.08098 c -2.211764,-0.81038 -3.188715,-2.3338 -3.371069,-5.25673 -0.13209,-2.11726 -0.469264,-1.82346 2.768643,-2.41249 1.008972,-0.18355 1.911184,-0.28632 2.004917,-0.2284 0.09374,0.0579 0.21574,0.65174 0.271123,1.31957 0.124734,1.50417 0.769176,2.30949 1.848111,2.30949 1.464132,0 2.442212,-1.61161 2.000261,-3.29589 -0.311544,-1.18729 -1.093248,-2.05766 -3.554506,-3.957675 -4.076057,-3.146601 -4.624124,-4.057781 -4.624124,-7.687788 0,-2.183884 0.06568,-2.649612 0.483883,-3.43134 1.175585,-2.19747 2.756881,-3.246021 5.489964,-3.640379 3.93035,-0.56711 6.745807,1.498584 6.928817,5.083661 l 0.06115,1.197966 -2.087397,0.497344 c -2.89318,0.689329 -2.781209,0.713459 -2.910022,-0.62712 -0.173664,-1.807366 -1.300821,-2.451476 -2.493967,-1.425175 -0.47283,0.406713 -0.599029,0.713583 -0.616498,1.499089 -0.03133,1.408238 0.774993,2.503934 2.986334,4.058119 3.424751,2.406998 4.537514,3.699638 5.124365,5.952718 1.049739,4.03022 -0.506432,7.94119 -3.754227,9.43515 -2.072184,0.95318 -4.90063,1.21631 -6.555762,0.60988 z M 168.63534,107.1287 c -2.20951,-0.32916 -4.05597,-0.63714 -4.10324,-0.6844 -0.0473,-0.0473 -0.15765,-5.03921 -0.24529,-11.093196 l -0.15934,-11.007253 0.98749,-0.111304 c 0.54313,-0.06122 2.43657,-0.06211 4.20766,-0.0021 l 3.22015,0.109319 v 2.0571 2.057099 h -2.08739 -2.08739 v 2.387462 2.387457 l 1.50812,0.107907 c 2.03324,0.145478 2.00749,0.116032 2.00749,2.295246 v 1.878718 l -1.64795,-0.08322 -1.64794,-0.08322 v 2.670955 2.67097 l 1.0437,0.1437 c 0.57403,0.079 1.5628,0.24559 2.19725,0.37012 l 1.15357,0.22641 v 2.18168 c 0,1.19992 -0.0742,2.16755 -0.1648,2.15028 -0.0906,-0.0173 -1.97258,-0.3007 -4.18209,-0.62985 z M 48.149657,107.02044 c -2.443948,-0.78553 -3.19316,-2.57813 -3.523334,-8.430089 -0.626595,-11.105723 0.958553,-15.031487 6.078554,-15.054069 3.366353,-0.01485 4.969048,1.528535 5.356926,5.158669 l 0.15943,1.492104 -1.549687,0.331702 c -2.800629,0.599455 -2.630034,0.652086 -2.775229,-0.856182 -0.159967,-1.661729 -0.494008,-2.307123 -1.194107,-2.307123 -1.22908,0 -1.315687,0.520783 -1.315687,7.911377 0,7.393711 0.08587,7.908881 1.318354,7.908881 0.809023,0 1.199592,-0.80486 1.352447,-2.78703 l 0.135106,-1.752031 2.002794,0.36052 2.002793,0.360516 -0.03178,1.524495 c -0.03387,1.62438 -0.640822,3.59016 -1.410644,4.56883 -1.13237,1.43957 -4.511913,2.24248 -6.60592,1.56943 z M 57.40651,94.960943 V 83.620116 h 2.087392 2.087397 v 4.284651 4.284655 h 1.428216 1.428215 v -4.284655 -4.284651 h 2.087397 2.087393 v 10.747817 10.747817 l -1.702874,0.14602 c -0.936579,0.0803 -1.875907,0.19429 -2.087393,0.25328 -0.357436,0.0997 -0.384523,-0.2188 -0.384523,-4.52179 v -4.629049 h -1.428215 -1.428216 v 4.703489 4.70348 l -1.153562,0.14199 c -0.634458,0.0781 -1.573785,0.19747 -2.087393,0.26529 l -0.933834,0.12331 z m 100.24985,10.910317 -0.93384,-0.0841 -7e-4,-4.65654 c -3.4e-4,-2.561095 -0.0654,-6.510474 -0.14461,-8.776397 l -0.14398,-4.119858 h -1.2653 c -0.78905,0 -1.2984,0.09928 -1.35322,0.26376 -0.0484,0.145069 -0.83928,0.428147 -1.75762,0.629068 l -1.66969,0.36531 -0.23366,-0.927964 c -0.40729,-1.617484 -1.3213,-1.832579 -1.78729,-0.420605 -0.39407,1.194029 0.0531,2.099352 2.10787,4.267513 1.00779,1.063413 2.18556,2.485632 2.61726,3.160486 2.72284,4.256485 0.60748,9.791907 -3.745,9.799817 -0.96551,0.002 -2.79483,-0.58153 -3.45675,-1.1022 -0.78419,-0.61684 -1.65126,-2.52864 -1.73319,-3.82152 -0.0777,-1.225336 -0.0432,-1.248623 2.2743,-1.538178 l 1.22287,-0.152788 0.11382,1.009752 c 0.26957,2.391644 2.36304,2.595644 2.36304,0.230268 0,-1.293691 -0.51278,-2.158851 -2.61921,-4.419087 -2.67691,-2.872384 -3.20352,-3.955972 -3.20352,-6.591823 0,-3.395333 1.4087,-4.95294 4.61424,-5.102003 2.10323,-0.0978 3.23695,0.476654 4.22972,2.143217 l 0.71411,1.198773 v -1.587578 -1.587575 l 4.77903,0.05921 4.77903,0.05922 v 2.087397 2.087396 l -1.09863,0.03052 c -0.60424,0.01679 -1.23281,0.04151 -1.39681,0.05493 -0.24865,0.02035 -0.27121,1.484413 -0.13581,8.813437 l 0.16238,8.789032 -1.18255,-0.0384 c -0.6504,-0.0211 -1.60277,-0.0762 -2.11638,-0.1225 z m -83.964776,-1.2562 c -1.285404,-0.41604 -2.347653,-1.49035 -2.879722,-2.91243 -0.900963,-2.408035 -1.073872,-10.163915 -0.308443,-13.835074 0.6164,-2.956373 2.292621,-4.341656 5.25623,-4.343917 2.315935,-0.0018 3.675402,0.817164 4.718058,2.842126 l 0.769038,1.493568 0.07563,5.142018 c 0.11649,7.920249 -0.429513,9.856109 -3.16799,11.232099 -1.20499,0.60546 -3.23489,0.77904 -4.462801,0.38161 z m 2.928465,-4.12495 c 0.454765,-0.649265 0.506665,-11.805989 0.05906,-12.695205 -0.390644,-0.776051 -1.337676,-0.85302 -1.800702,-0.146352 -0.482161,0.73587 -0.412019,12.377067 0.07813,12.966967 0.426284,0.51304 1.260368,0.45016 1.66351,-0.12541 z m 63.128671,3.84657 -0.60425,-0.0915 v -4.454137 c 0,-2.449776 -0.0653,-6.991534 -0.14509,-10.092792 l -0.14509,-5.63865 h 1.97825 1.97826 l 0.14436,3.660569 c 0.0794,2.013313 0.14437,6.611074 0.14437,10.217251 v 6.556679 l -1.37328,-0.0329 c -0.75531,-0.0181 -1.6452,-0.0741 -1.97753,-0.12446 z m -5.43822,-0.29199 c -1.26891,-0.0858 -2.87565,-0.16807 -3.57054,-0.18288 l -1.26342,-0.0269 v -9.887657 -9.887659 h 4.06492 4.06493 v 1.757807 1.757805 h -1.96272 c -2.33618,0 -2.33567,-7.06e-4 -2.10045,2.656573 l 0.15385,1.737943 h 1.62507 1.62507 v 1.757808 1.757804 h -1.64794 -1.64794 v 2.416985 2.416981 h 0.73681 c 0.40524,0 1.34457,0.0635 2.08739,0.14117 l 1.35059,0.14116 v 1.83637 c 0,1.83637 0,1.83637 -0.60425,1.79951 -0.33233,-0.0202 -1.64245,-0.10702 -2.91137,-0.19279 z M 82.852401,94.331749 c -0.03717,-5.347577 -0.02829,-9.907532 0.01976,-10.133234 0.08189,-0.384858 0.293602,-0.403355 3.405747,-0.297553 3.818929,0.129828 4.672257,0.333486 5.847991,1.395689 2.252301,2.034819 2.280171,7.239123 0.05044,9.419617 l -0.67406,0.659177 0.947148,2.746574 c 0.520931,1.510613 1.155273,3.331331 1.409646,4.046051 0.254376,0.71471 0.427424,1.33455 0.384551,1.37743 -0.04288,0.0429 -1.04448,0.1008 -2.225791,0.12874 l -2.147837,0.0508 -0.312617,-1.09863 c -1.334571,-4.690043 -1.913033,-6.262188 -2.304139,-6.262188 -0.375551,0 -0.403477,0.256743 -0.403477,3.709708 0,4.27995 0.190217,3.97229 -2.459269,3.97769 l -1.470506,0.003 z m 5.610723,-1.507379 c 0.753986,-0.343541 1.023335,-1.083917 1.023335,-2.812913 0,-1.935237 -0.481346,-2.656005 -1.773754,-2.656005 H 86.84975 v 2.856438 c 0,2.856435 0,2.856435 0.538976,2.856435 0.296438,0 0.779918,-0.10978 1.074398,-0.243955 z m 36.454106,10.85157 -0.71411,-0.0886 -0.0149,-5.644021 c -0.009,-3.288191 -0.0924,-5.460589 -0.20058,-5.204565 -0.10213,0.241698 -0.63652,2.180864 -1.18753,4.309257 -1.31346,5.073579 -1.31398,5.074869 -2.03824,4.988739 -0.70086,-0.0833 -0.95711,-0.74362 -2.28037,-5.875785 -0.48063,-1.864106 -0.92248,-3.437892 -0.98189,-3.4973 -0.0594,-0.05941 -0.10802,2.325105 -0.10802,5.298919 0,2.973816 -0.0742,5.440586 -0.16479,5.481706 -0.0906,0.0411 -0.93211,0.0391 -1.86995,-0.005 l -1.70514,-0.0792 0.0572,-9.705426 0.0572,-9.705425 h 2.30712 2.30712 l 1.18931,4.559308 c 0.65412,2.507621 1.25755,4.559312 1.34096,4.559312 0.0834,0 0.52263,-1.507869 0.97602,-3.350819 0.4534,-1.842951 0.97854,-3.919358 1.16697,-4.614243 l 0.34263,-1.263404 h 2.13137 2.13137 l 0.13973,1.019436 c 0.0769,0.560685 0.13973,5.059573 0.13973,9.997521 v 8.97809 l -1.15357,-0.0352 c -0.63445,-0.0193 -1.4749,-0.075 -1.86766,-0.12378 z M 95.299895,103.3405 c -0.05795,-0.15106 -0.07957,-4.575783 -0.04804,-9.832724 l 0.05733,-9.558071 2.032462,-0.06318 2.032459,-0.06318 v 8.028238 8.028234 h 1.977544 1.97753 v 1.726033 1.72603 l -1.48315,0.14008 c -2.641614,0.24948 -6.429177,0.17342 -6.54614,-0.13146 z m 8.908195,-9.722863 V 83.83984 h 3.95506 3.95506 v 1.757807 1.757805 h -1.97753 -1.97753 v 2.087396 2.087396 l 1.15356,0.0028 c 2.12541,0.0055 2.14232,0.02131 2.14232,2.000158 v 1.732182 h -1.64794 -1.64794 v 2.30712 2.30712 h 2.06176 c 2.36706,0 2.3243,-0.04134 2.32975,2.252196 l 0.003,1.26342 h -4.17476 -4.17479 z M 88.497693,80.633355 C 78.419612,80.326707 70.806197,80.017086 70.638445,79.907059 c -0.208414,-0.136698 -1.495896,-6.563598 -1.342999,-6.704024 0.04736,-0.0435 0.926564,0.05849 1.953782,0.226641 20.061703,3.28406 56.243602,3.279456 74.917872,-0.0095 1.02249,-0.180085 1.88593,-0.300576 1.91875,-0.267757 0.0328,0.03281 -0.0336,0.646424 -0.14774,1.363565 -0.11408,0.717142 -0.31773,2.150854 -0.45255,3.186024 -0.13483,1.03517 -0.31167,1.984622 -0.39299,2.109889 -0.29159,0.449219 -13.88036,0.77039 -35.08422,0.829216 -11.72237,0.03253 -22.302165,0.02903 -23.510657,-0.0077 z m -23.773649,-1.12862 c -0.901626,-0.08168 -0.924705,-0.104084 -1.035385,-1.005311 -0.06226,-0.506972 -0.21451,-1.712783 -0.338327,-2.679574 -0.40407,-3.155061 -0.52684,-5.383282 -0.2966,-5.383282 0.119496,0 0.389387,0.190192 0.599758,0.422655 0.210375,0.232458 0.917837,0.676124 1.572135,0.985922 1.009809,0.478121 1.191157,0.655035 1.199677,1.170357 0.0055,0.3339 0.133924,1.966641 0.285336,3.628317 l 0.275296,3.021231 -0.669856,-0.03839 c -0.368422,-0.0211 -1.084837,-0.07598 -1.592034,-0.121925 z M 150.35698,79.20244 c 0.004,-0.289386 0.14984,-1.910429 0.32503,-3.602317 0.17518,-1.691888 0.32057,-3.148894 0.32308,-3.237794 0.002,-0.0889 0.59062,-0.45747 1.30692,-0.819055 0.71629,-0.361582 1.36482,-0.758512 1.44118,-0.882065 0.40026,-0.647627 0.55239,-0.08511 0.42949,1.588094 -0.14653,1.995079 -0.74578,7.039278 -0.84847,7.141965 -0.0356,0.03561 -0.72152,0.126082 -1.52424,0.20104 -1.43234,0.133755 -1.45937,0.126498 -1.45299,-0.389868 z M 92.775242,73.386044 C 85.561114,73.028851 78.408478,72.334636 73.450599,71.510452 61.279294,69.487123 59.026533,66.550325 67.763838,64.096934 c 18.627017,-5.230378 75.464602,-4.337338 85.312552,1.340438 5.40614,3.116876 -3.29811,6.022823 -22.83081,7.622146 -8.85537,0.725069 -26.34323,0.877465 -37.470338,0.326526 z m 36.261848,-2.596985 c 11.72022,-0.792541 19.61368,-2.023724 21.71102,-3.38638 0.59683,-0.387765 0.48938,-0.488062 -1.21528,-1.134444 -3.16003,-1.19823 -11.60994,-2.361405 -22.693,-3.123815 -5.52626,-0.380156 -30.048287,-0.385479 -35.815291,-0.0078 -14.071098,0.921572 -25.849686,2.884047 -24.812262,4.134068 0.592549,0.713977 5.674961,1.972419 10.09064,2.498518 4.721286,0.56251 8.967093,0.869337 19.555589,1.413198 4.206344,0.216051 28.410004,-0.07091 33.178584,-0.39337 z"
       id="path5" />
  </g>
</svg>
